<svg width="18" height="16" viewBox="0 0 18 16" fill="none" xmlns="http://www.w3.org/2000/svg">
<path fill-rule="evenodd" clip-rule="evenodd" d="M14.625 3.42857C16.488 3.42857 18 4.96457 18 6.85714V12.5714C18 14.464 16.488 16 14.625 16C13.1299 16 11.8597 15.0103 11.4176 13.64C11.1982 13.0297 10.7224 12.5714 10.125 12.5714H7.8705C7.2495 12.5714 6.82538 12.9909 6.55762 13.7143C6.09412 15.0457 4.84312 16 3.375 16C1.512 16 0 14.464 0 12.5714V6.85714C0 4.96457 1.512 3.42857 3.375 3.42857H14.625ZM13.6339 9.58515C14.0231 9.98057 14.0231 10.6229 13.6339 11.0183C13.2446 11.4137 12.6124 11.4137 12.2231 11.0183C11.8339 10.6229 11.8339 9.98057 12.2231 9.58515C12.6124 9.18972 13.2446 9.18972 13.6339 9.58515ZM4.36162 6.26855H3.51C3.27487 6.26855 3.08475 6.4617 3.08475 6.70055V7.70398H2.09025C1.85512 7.70398 1.66387 7.89827 1.66387 8.13827V9.0057C1.66387 9.24455 1.85512 9.43884 2.09025 9.43884H3.08475V10.4423C3.08475 10.6811 3.27487 10.8743 3.51 10.8743H4.36162C4.59562 10.8743 4.78687 10.6811 4.78687 10.4423V9.43884H5.78475C6.01987 9.43884 6.21112 9.24455 6.21112 9.0057V8.13827C6.21112 7.89827 6.01987 7.70398 5.78475 7.70398H4.78687V6.70055C4.78687 6.4617 4.59562 6.26855 4.36162 6.26855ZM15.4575 7.85486C15.8468 8.25029 15.8468 8.89257 15.4575 9.288C15.0671 9.68343 14.4349 9.68343 14.0456 9.288C13.6564 8.89257 13.6564 8.25029 14.0456 7.85486C14.4349 7.45943 15.0671 7.45943 15.4575 7.85486ZM11.8282 7.85486C12.2175 8.25029 12.2175 8.89257 11.8282 9.288C11.439 9.68343 10.8067 9.68343 10.4175 9.288C10.0271 8.89257 10.0271 8.25029 10.4175 7.85486C10.8067 7.45943 11.439 7.45943 11.8282 7.85486ZM13.6339 6.12454C14.0231 6.51997 14.0231 7.16226 13.6339 7.55769C13.2446 7.95311 12.6124 7.95311 12.2231 7.55769C11.8339 7.16226 11.8339 6.51997 12.2231 6.12454C12.6124 5.72912 13.2446 5.72912 13.6339 6.12454ZM10.125 2.28571H7.50487C6.88387 2.28571 6.37987 1.77371 6.37987 1.14286C6.37987 0.512 6.88387 0 7.50487 0H10.125C10.746 0 11.25 0.512 11.25 1.14286C11.25 1.77371 10.746 2.28571 10.125 2.28571Z" fill="#EB5757"/>
</svg>
