<svg width="16" height="16" viewBox="0 0 16 16" fill="none" xmlns="http://www.w3.org/2000/svg">
<path fill-rule="evenodd" clip-rule="evenodd" d="M6.997 1.379V1C6.997 0.448 7.445 0 7.997 0C8.549 0 8.997 0.448 8.997 1V1.419C9.31 1.465 9.62 1.531 9.923 1.622C10.433 1.774 10.922 1.996 11.367 2.289C11.896 2.637 12.357 3.084 12.718 3.604C12.92 3.896 13.095 4.211 13.226 4.541C13.27 4.652 13.317 4.766 13.342 4.884C13.369 5.015 13.37 5.151 13.344 5.282C13.318 5.414 13.266 5.539 13.191 5.65C12.961 5.989 12.535 6.156 12.137 6.063C12.028 6.038 11.924 5.994 11.83 5.935C11.717 5.864 11.618 5.77 11.542 5.66C11.503 5.604 11.473 5.546 11.445 5.485C11.41 5.396 11.379 5.307 11.342 5.219C11.246 5.005 11.125 4.803 10.981 4.618C10.862 4.464 10.728 4.323 10.58 4.196C10.464 4.095 10.339 4.003 10.209 3.922C9.835 3.687 9.424 3.538 8.997 3.45V6.884C9.059 6.893 9.11 6.901 9.23 6.919C10.27 7.088 11.349 7.34 12.181 8.028C12.302 8.128 12.416 8.237 12.522 8.353C12.845 8.708 13.083 9.133 13.226 9.591C13.333 9.936 13.388 10.297 13.403 10.658C13.414 10.921 13.404 11.185 13.365 11.446C13.297 11.89 13.144 12.318 12.909 12.701C12.481 13.4 11.805 13.904 11.058 14.223C10.406 14.502 9.702 14.649 8.997 14.716V15C8.997 15.552 8.549 16 7.997 16C7.445 16 6.997 15.552 6.997 15V14.699C5.998 14.58 5.019 14.275 4.197 13.685C4.034 13.569 3.88 13.442 3.734 13.306C3.56 13.142 3.398 12.963 3.253 12.772C3.057 12.515 2.891 12.234 2.758 11.939C2.587 11.557 2.471 11.152 2.407 10.739C2.393 10.654 2.382 10.568 2.373 10.482C2.362 10.376 2.352 10.27 2.364 10.163C2.378 10.03 2.419 9.9 2.484 9.783C2.539 9.686 2.609 9.598 2.692 9.524C2.98 9.267 3.401 9.2 3.755 9.353C3.857 9.397 3.952 9.458 4.034 9.534C4.149 9.639 4.239 9.772 4.294 9.918C4.317 9.981 4.332 10.045 4.345 10.111C4.355 10.191 4.362 10.272 4.372 10.352C4.41 10.616 4.473 10.875 4.583 11.119C4.645 11.256 4.72 11.388 4.808 11.511C5.259 12.141 6.004 12.477 6.743 12.633C6.827 12.651 6.912 12.667 6.997 12.68V8.648C6.834 8.626 6.67 8.602 6.507 8.577C5.599 8.426 4.66 8.201 3.917 7.628C3.827 7.559 3.74 7.484 3.658 7.405C3.309 7.07 3.049 6.652 2.899 6.193C2.798 5.886 2.746 5.564 2.731 5.241C2.711 4.797 2.768 4.354 2.917 3.933C3.123 3.354 3.491 2.844 3.966 2.455C4.78 1.787 5.835 1.495 6.866 1.391C6.91 1.386 6.953 1.382 6.997 1.379ZM8.997 8.907V12.704C9.386 12.657 9.773 12.576 10.14 12.437C10.411 12.335 10.674 12.199 10.896 12.01C10.993 11.928 11.081 11.834 11.155 11.73C11.268 11.57 11.343 11.386 11.379 11.193C11.419 10.98 11.414 10.757 11.389 10.541C11.362 10.311 11.302 10.081 11.18 9.882C11.125 9.79 11.056 9.707 10.978 9.633C10.816 9.479 10.618 9.367 10.414 9.278C10.109 9.144 9.783 9.059 9.457 8.991C9.304 8.959 9.151 8.932 8.997 8.907ZM6.997 3.388C6.736 3.417 6.476 3.462 6.223 3.53C5.957 3.602 5.696 3.7 5.46 3.843C5.226 3.984 5.019 4.172 4.887 4.413C4.799 4.573 4.746 4.752 4.731 4.934C4.722 5.039 4.726 5.145 4.736 5.25C4.753 5.432 4.796 5.616 4.892 5.774C4.934 5.844 4.985 5.907 5.044 5.963C5.202 6.116 5.405 6.219 5.608 6.299C5.942 6.432 6.296 6.509 6.649 6.572C6.765 6.593 6.881 6.612 6.997 6.63V3.388Z" fill="#EB5757"/>
</svg>
