<svg width="16" height="16" viewBox="0 0 16 16" fill="none" xmlns="http://www.w3.org/2000/svg">
<path fill-rule="evenodd" clip-rule="evenodd" d="M8.064 5.77984e-05C10.7863 5.77984e-05 13.7691 0.362723 14.8503 0.664589C15.5314 0.917388 15.9794 1.53392 15.9794 2.21872C16 3.79311 16 6.69657 16 9.10189C16 12.5803 10.584 15.9733 8.02971 16H8C5.45829 16 0 12.5941 0 9.10189C0 6.69657 0 3.79311 0.0205714 2.21872C0.0205714 1.53392 0.468571 0.917388 1.14971 0.664589C2.23886 0.359523 5.26171 -0.00527552 8 5.77984e-05H8.064ZM8 12.4576C8 12.8299 8.20114 13.1776 8.53486 13.3813C8.86857 13.5851 9.29029 13.6181 9.656 13.4677C11.5737 12.6486 13.8663 10.7467 13.8663 8.80857C13.8663 7.04431 13.8663 4.91525 13.8514 3.76005C13.8514 3.25765 13.5234 2.80646 13.024 2.62086C12.3874 2.44272 10.8503 2.23686 9.23543 2.16219C8.91429 2.14832 8.6 2.25712 8.36686 2.46512C8.13486 2.67312 8.00229 2.96005 8.00229 3.26085C8 5.41338 8 10.1024 8 12.4576Z" fill="#EB5757"/>
</svg>
