<svg width="28" height="27" viewBox="0 0 28 27" fill="none" xmlns="http://www.w3.org/2000/svg">
<path fill-rule="evenodd" clip-rule="evenodd" d="M13.6638 22.0759C12.0583 23.1393 9.34239 24.8968 6.61714 26.6599C6.19325 27.0162 5.60056 27.1044 5.00787 26.8681C4.14509 26.5229 3.97253 25.6583 4.31764 24.7955L6.56274 16.3328L0.553303 10.8297C0.226948 10.5653 0 10.1677 0 9.77003C0 8.90725 0.690223 8.38771 1.38045 8.38771H9.20735L12.364 1.02033C12.6528 0.363868 13.1743 0 13.8157 0H13.8307C14.4647 0.00937803 14.9823 0.367619 15.2674 1.02033L18.4259 8.38771H26.251C26.9412 8.38771 27.6333 8.90725 27.6333 9.77003C27.6333 10.1677 27.4045 10.5653 27.0781 10.8297L21.0705 16.3328L23.3156 24.7955C23.6608 25.6583 23.4882 26.5229 22.6235 26.8681C22.0327 27.1044 21.44 27.0162 21.0143 26.6599C18.2027 24.8405 15.3987 23.0249 13.8157 21.9746L13.6638 22.0759Z" fill="#FFD43D"/>
</svg>
