<svg width="48" height="48" viewBox="0 0 48 48" fill="none" xmlns="http://www.w3.org/2000/svg">
<path fill-rule="evenodd" clip-rule="evenodd" d="M21.9874 0.7072C22.5363 0.2656 23.2393 0 24 0C24.7607 0 25.4637 0.2656 26.0126 0.7072L46.7482 16.6656C47.5089 17.2512 48 18.1696 48 19.2C48 20.9664 46.562 22.4 44.7902 22.4H43.2591V41.6C45.0309 41.6 46.4689 43.0336 46.4689 44.8C46.4689 46.5664 45.0309 48 43.2591 48H4.74094C2.96911 48 1.5311 46.5664 1.5311 44.8C1.5311 43.0336 2.96911 41.6 4.74094 41.6V22.4H3.20984C1.43801 22.4 0 20.9664 0 19.2C0 18.1696 0.491106 17.2512 1.25184 16.6656L21.9874 0.7072ZM14.3706 23.9999C14.3706 23.1167 13.6516 22.3999 12.7657 22.3999C11.8798 22.3999 11.1608 23.1167 11.1608 23.9999V39.9999C11.1608 40.8831 11.8798 41.5999 12.7657 41.5999C13.6516 41.5999 14.3706 40.8831 14.3706 39.9999V23.9999ZM27.2098 25.5999C27.2098 23.8335 25.7718 22.3999 24 22.3999C22.2282 22.3999 20.7902 23.8335 20.7902 25.5999V38.3999C20.7902 40.1663 22.2282 41.5999 24 41.5999C25.7718 41.5999 27.2098 40.1663 27.2098 38.3999V25.5999ZM36.8393 23.9999C36.8393 23.1167 36.1203 22.3999 35.2344 22.3999C34.3485 22.3999 33.6295 23.1167 33.6295 23.9999V39.9999C33.6295 40.8831 34.3485 41.5999 35.2344 41.5999C36.1203 41.5999 36.8393 40.8831 36.8393 39.9999V23.9999ZM24 9.60015C25.7718 9.60015 27.2098 11.0337 27.2098 12.8001C27.2098 14.5665 25.7718 16.0001 24 16.0001C22.2282 16.0001 20.7902 14.5665 20.7902 12.8001C20.7902 11.0337 22.2282 9.60015 24 9.60015Z" fill="white"/>
</svg>
