<svg width="17" height="17" viewBox="0 0 17 17" fill="none" xmlns="http://www.w3.org/2000/svg">
<path fill-rule="evenodd" clip-rule="evenodd" d="M8.40596 13.8996C7.41824 14.5692 5.74744 15.6758 4.07086 16.7858C3.81009 17.0102 3.44546 17.0657 3.08084 16.9169C2.55006 16.6996 2.4439 16.1552 2.65621 15.612L4.0374 10.2836L0.340392 6.81873C0.139619 6.65222 0 6.40186 0 6.1515C0 5.60827 0.424625 5.28115 0.84925 5.28115H5.66436L7.60633 0.64243C7.78402 0.229102 8.1048 0 8.49942 0H8.50865C8.89866 0.00590469 9.21713 0.231464 9.39252 0.64243L11.3356 5.28115H16.1496C16.5742 5.28115 17 5.60827 17 6.1515C17 6.40186 16.8592 6.65222 16.6585 6.81873L12.9626 10.2836L14.3438 15.612C14.5561 16.1552 14.4499 16.6996 13.918 16.9169C13.5545 17.0657 13.1899 17.0102 12.928 16.7858C11.1983 15.6403 9.47329 14.4972 8.49942 13.8359L8.40596 13.8996Z" fill="#EB5757"/>
</svg>
