<svg width="24" height="24" viewBox="0 0 24 24" fill="none" xmlns="http://www.w3.org/2000/svg">
<path d="M20.3027 2.98443C20.0138 2.997 19.7486 3.08011 19.5156 3.17193C19.3004 3.25669 18.5275 3.58152 17.2969 4.09771C16.0662 4.61389 14.4355 5.29829 12.6973 6.02935C9.22084 7.49147 5.31424 9.13618 3.3125 9.97857C3.24376 10.0072 2.96459 10.0927 2.65625 10.3282C2.3472 10.5642 2.00391 11.0765 2.00391 11.6368C2.00391 12.0887 2.22952 12.549 2.50195 12.8126C2.77439 13.0761 3.05049 13.1993 3.28125 13.2911C3.95634 13.5599 6.04249 14.393 6.94922 14.7559C7.26686 15.7079 8.01293 17.9501 8.1875 18.502H8.18555C8.32756 18.9512 8.46598 19.244 8.6582 19.4883C8.75432 19.6105 8.86904 19.7212 9.00977 19.8086C9.06376 19.8422 9.12355 19.8682 9.18359 19.8926C9.19196 19.8962 9.20059 19.8971 9.20898 19.9004L9.18555 19.8946C9.20296 19.9016 9.21858 19.9119 9.23633 19.918C9.26524 19.928 9.28529 19.9277 9.32422 19.9356C9.46122 19.9777 9.59798 20.0059 9.72461 20.0059C10.2682 20.0059 10.6016 19.711 10.6016 19.711L10.623 19.6954L12.9707 17.709L15.8457 20.3672C15.8971 20.4399 16.3082 20.9981 17.2617 20.9981C17.8298 20.9981 18.281 20.7188 18.5684 20.4239C18.8557 20.1289 19.0348 19.8271 19.1152 19.418V19.4141V19.4122C19.1711 19.1218 21.9316 5.26568 21.9316 5.26568L21.9258 5.28911C22.0115 4.90677 22.0367 4.53702 21.9355 4.16021C21.8344 3.7834 21.5613 3.41568 21.2324 3.22271C20.9036 3.02974 20.5917 2.97186 20.3027 2.98443ZM19.9082 5.17388C19.7997 5.71828 17.3432 18.06 17.1836 18.879L14.3281 16.2403C13.5921 15.5598 12.4444 15.5359 11.6797 16.1817L10.2227 17.4141L11 14.3751C11 14.3751 16.3625 8.94691 16.6855 8.63091C16.9455 8.37791 17 8.28922 17 8.20122C17 8.08422 16.9398 8.00005 16.8008 8.00005C16.6758 8.00005 16.506 8.11983 16.416 8.17583C15.2675 8.89187 10.3501 11.6943 7.96875 13.0489C7.8793 12.9953 7.79131 12.9397 7.69336 12.9004C6.91198 12.5877 5.41013 11.9856 4.53125 11.6348C6.60551 10.7618 10.1612 9.26586 13.4727 7.8731C15.2106 7.14216 16.8408 6.45715 18.0703 5.94146C19.1082 5.50615 19.6495 5.28076 19.9082 5.17388ZM17.1523 19.0235H17.1543C17.1542 19.0238 17.1524 19.031 17.1523 19.0313C17.154 19.0228 17.1512 19.0296 17.1523 19.0235Z" fill="#EB5757"/>
</svg>
