<svg width="16" height="15" viewBox="0 0 16 15" fill="none" xmlns="http://www.w3.org/2000/svg">
<path fill-rule="evenodd" clip-rule="evenodd" d="M11 15H5C4.448 15 4 14.552 4 14C4 13.448 4.448 13 5 13H5.636C5.636 12.325 6.184 11.776 6.86 11.776H7V10.9C5.373 10.569 4.033 9.448 3.397 7.955C1.475 7.664 0 6.003 0 4V3.9C0 2.851 0.851 2 1.9 2H3C3 0.896 3.896 0 5 0H11C12.104 0 13 0.896 13 2H14.1C15.149 2 16 2.851 16 3.9V4C16 6.003 14.525 7.664 12.603 7.955C11.967 9.448 10.627 10.569 9 10.9V11.776H9.14C9.816 11.776 10.364 12.325 10.364 13H11C11.552 13 12 13.448 12 14C12 14.552 11.552 15 11 15Z" fill="#EB5757"/>
</svg>
